<svg width="214" height="65" viewBox="0 0 214 65" fill="none" xmlns="http://www.w3.org/2000/svg">
<g clip-path="url(#clip0_330_61)">
<path d="M132.383 50.1208C120.045 59.2145 102.163 64.0664 86.7663 64.0664C65.1779 64.0664 45.7429 56.0816 31.0395 42.8015C29.8843 41.7572 30.9193 40.334 32.3056 41.1472C48.1734 50.3796 67.7933 55.9338 88.0601 55.9338C101.728 55.9338 116.764 53.1058 130.59 47.2374C132.678 46.3502 134.425 48.6052 132.383 50.1208Z" fill="black"/>
<path d="M137.512 44.2524C135.941 42.2377 127.087 43.3005 123.113 43.7718C121.903 43.9197 121.718 42.8661 122.808 42.1083C129.86 37.1456 141.43 38.578 142.779 40.2415C144.129 41.9142 142.428 53.5124 135.802 59.0481C134.785 59.8984 133.815 59.4455 134.268 58.318C135.756 54.6029 139.092 46.2763 137.512 44.2524Z" fill="black"/>
<path d="M123.387 7.07341V2.24931C123.387 1.51922 123.941 1.02942 124.607 1.02942H146.204C146.897 1.02942 147.452 1.52846 147.452 2.24931V6.3803C147.443 7.07341 146.86 7.97909 145.825 9.41153L134.634 25.3902C138.792 25.2886 143.182 25.9078 146.953 28.0333C147.803 28.5139 148.034 29.2162 148.099 29.9094V35.0569C148.099 35.7593 147.322 36.5818 146.509 36.1567C139.864 32.6726 131.039 32.2937 123.692 36.1937C122.943 36.6003 122.158 35.787 122.158 35.0847V30.1959C122.158 29.4103 122.167 28.0703 122.952 26.8781L135.918 8.28406H124.634C123.941 8.28406 123.387 7.79426 123.387 7.07341Z" fill="black"/>
<path d="M44.606 37.1733H38.0352C37.4068 37.1271 36.9077 36.6558 36.8615 36.0551V2.33253C36.8615 1.6579 37.4252 1.12188 38.1276 1.12188H44.2548C44.8925 1.14959 45.4007 1.63941 45.4469 2.24935V6.65759H45.5671C47.1659 2.39722 50.1694 0.410278 54.2172 0.410278C58.3297 0.410278 60.8989 2.39722 62.7472 6.65759C64.3367 2.39722 67.9502 0.410278 71.8224 0.410278C74.5764 0.410278 77.5892 1.54699 79.4282 4.09767C81.5076 6.93484 81.0825 11.0566 81.0825 14.67L81.0733 35.9534C81.0733 36.628 80.5095 37.1733 79.8072 37.1733H73.2456C72.5895 37.1271 72.0627 36.6003 72.0627 35.9534V18.0802C72.0627 16.657 72.1921 13.1082 71.8779 11.7589C71.3881 9.49476 69.9187 8.85708 68.0149 8.85708C66.4253 8.85708 64.7619 9.91987 64.0872 11.6203C63.4126 13.3208 63.4773 16.1672 63.4773 18.0802V35.9534C63.4773 36.628 62.9135 37.1733 62.2112 37.1733H55.6497C54.9843 37.1271 54.4667 36.6003 54.4667 35.9534L54.4575 18.0802C54.4575 14.3189 55.0767 8.78315 50.4097 8.78315C45.6872 8.78315 45.8721 14.1802 45.8721 18.0802V35.9534C45.8721 36.628 45.3083 37.1733 44.606 37.1733Z" fill="black"/>
<path d="M166.05 0.410278C175.799 0.410278 181.076 8.78315 181.076 19.4295C181.076 29.7153 175.245 37.8757 166.05 37.8757C156.475 37.8757 151.263 29.5028 151.263 19.069C151.263 8.5706 156.54 0.410278 166.05 0.410278ZM166.105 7.29526C161.262 7.29526 160.957 13.8937 160.957 18.0063C160.957 22.128 160.893 30.926 166.05 30.926C171.142 30.926 171.382 23.8285 171.382 19.5034C171.382 16.657 171.262 13.2561 170.402 10.5575C169.663 8.21018 168.194 7.29526 166.105 7.29526Z" fill="black"/>
<path d="M193.719 37.1733H187.176C186.52 37.1271 185.993 36.6003 185.993 35.9534L185.984 2.22163C186.039 1.60244 186.585 1.12188 187.25 1.12188H193.34C193.913 1.14959 194.384 1.53775 194.514 2.06452V7.22132H194.634C196.473 2.60978 199.051 0.410278 203.589 0.410278C206.537 0.410278 209.411 1.47306 211.26 4.38416C212.978 7.0827 212.978 11.6203 212.978 14.8826V36.1105C212.905 36.702 212.359 37.1733 211.712 37.1733H205.123C204.522 37.1271 204.023 36.6835 203.959 36.1105V17.7937C203.959 14.1063 204.384 8.70922 199.846 8.70922C198.247 8.70922 196.778 9.78125 196.048 11.4078C195.124 13.4686 195.004 15.5203 195.004 17.7937V35.9534C194.994 36.628 194.421 37.1733 193.719 37.1733Z" fill="black"/>
<path d="M20.0326 21.0652V19.642C15.2824 19.642 10.2642 20.6586 10.2642 26.259C10.2642 29.0961 11.7336 31.0184 14.2566 31.0184C16.1049 31.0184 17.7591 29.8817 18.8034 28.0333C20.0973 25.7599 20.0326 23.6251 20.0326 21.0652ZM26.6588 37.0808C26.2244 37.469 25.596 37.4967 25.1062 37.238C22.9252 35.4266 22.537 34.5856 21.3356 32.8575C17.7314 36.5356 15.1807 37.6353 10.5045 37.6353C4.97802 37.6353 0.671448 34.2252 0.671448 27.3957C0.671448 22.0633 3.56406 18.4313 7.67657 16.657C11.2438 15.0859 16.225 14.8086 20.0326 14.3743V13.5241C20.0326 11.9622 20.1527 10.1139 19.2378 8.76464C18.4338 7.55399 16.8997 7.05495 15.5504 7.05495C13.0459 7.05495 10.8095 8.33953 10.2642 11.0011C10.1533 11.5926 9.71896 12.1748 9.1275 12.2025L2.7508 11.5186C2.21479 11.3985 1.62333 10.9641 1.77119 10.1416C3.24061 2.41568 10.218 0.086792 16.4653 0.086792C19.6629 0.086792 23.8401 0.937018 26.363 3.35831C29.5606 6.34334 29.2557 10.3265 29.2557 14.6608V24.9004C29.2557 27.9779 30.531 29.3272 31.7324 30.9907C32.1575 31.5821 32.2499 32.2937 31.7139 32.7373C30.3739 33.8555 27.9896 35.9349 26.6773 37.0993L26.6588 37.0808" fill="black"/>
<path d="M105.211 21.0652V19.642C100.46 19.642 95.4423 20.6586 95.4423 26.259C95.4423 29.0961 96.9117 31.0184 99.4347 31.0184C101.283 31.0184 102.937 29.8817 103.982 28.0333C105.275 25.7599 105.211 23.6251 105.211 21.0652ZM111.837 37.0808C111.403 37.469 110.774 37.4967 110.284 37.238C108.103 35.4266 107.715 34.5856 106.514 32.8575C102.91 36.5356 100.359 37.6353 95.6826 37.6353C90.1561 37.6353 85.8495 34.2252 85.8495 27.3957C85.8495 22.0633 88.7422 18.4313 92.8547 16.657C96.4219 15.0859 101.403 14.8086 105.211 14.3743V13.5241C105.211 11.9622 105.331 10.1139 104.416 8.76464C103.612 7.55399 102.078 7.05495 100.728 7.05495C98.224 7.05495 95.9876 8.33953 95.4423 11.0011C95.3314 11.5926 94.8971 12.1748 94.3056 12.2025L87.9289 11.5186C87.3929 11.3985 86.8014 10.9641 86.9493 10.1416C88.4187 2.41568 95.3961 0.086792 101.643 0.086792C104.841 0.086792 109.018 0.937018 111.541 3.35831C114.739 6.34334 114.434 10.3265 114.434 14.6608V24.9004C114.434 27.9779 115.709 29.3272 116.911 30.9907C117.336 31.5821 117.428 32.2937 116.892 32.7373C115.552 33.8555 113.168 35.9349 111.855 37.0993L111.837 37.0808" fill="black"/>
</g>
<defs>
<clipPath id="clip0_330_61">
<rect width="212.561" height="64.156" fill="white" transform="translate(0.543152)"/>
</clipPath>
</defs>
</svg>
