<svg width="8" height="14" viewBox="0 0 8 14" fill="none" xmlns="http://www.w3.org/2000/svg">
<path d="M0.460003 7.70996L6.12 13.36C6.21297 13.4537 6.32357 13.5281 6.44543 13.5789C6.56729 13.6296 6.69799 13.6558 6.83 13.6558C6.96201 13.6558 7.09272 13.6296 7.21458 13.5789C7.33644 13.5281 7.44704 13.4537 7.54 13.36C7.72625 13.1726 7.8308 12.9191 7.8308 12.655C7.8308 12.3908 7.72625 12.1373 7.54 11.95L2.59 6.94996L7.54 1.99996C7.72625 1.8126 7.8308 1.55915 7.8308 1.29496C7.8308 1.03078 7.72625 0.777327 7.54 0.589964C7.44739 0.495476 7.33694 0.420305 7.21507 0.368809C7.09319 0.317312 6.96231 0.290514 6.83 0.289965C6.6977 0.290514 6.56681 0.317312 6.44494 0.368809C6.32306 0.420305 6.21262 0.495476 6.12 0.589964L0.460004 6.23996C0.358499 6.3336 0.27749 6.44726 0.222083 6.57376C0.166675 6.70026 0.138071 6.83686 0.138071 6.97496C0.138071 7.11307 0.166675 7.24967 0.222083 7.37617C0.27749 7.50267 0.358499 7.61632 0.460003 7.70996Z" fill="#0F1428"/>
</svg>
