<?xml version="1.0" encoding="UTF-8"?>
<!DOCTYPE svg PUBLIC "-//W3C//DTD SVG 1.1//EN" "http://www.w3.org/Graphics/SVG/1.1/DTD/svg11.dtd">
<svg xmlns="http://www.w3.org/2000/svg" version="1.1" width="225px" height="225px" style="shape-rendering:geometricPrecision; text-rendering:geometricPrecision; image-rendering:optimizeQuality; fill-rule:evenodd; clip-rule:evenodd" xmlns:xlink="http://www.w3.org/1999/xlink">
<g><path style="opacity:1" fill="#161616" d="M 172.5,55.5 C 172.5,56.5 172.5,57.5 172.5,58.5C 154.575,75.7582 136.908,93.4249 119.5,111.5C 120.472,113.305 121.639,114.972 123,116.5C 139.862,133.696 157.028,150.529 174.5,167C 172.273,169.935 169.606,171.935 166.5,173C 148.596,154.595 130.263,136.761 111.5,119.5C 93.3472,137.153 75.3472,154.986 57.5,173C 54.8793,172.573 52.8793,171.073 51.5,168.5C 52.1667,166.833 52.8333,165.167 53.5,163.5C 71.0209,146.813 88.0209,129.646 104.5,112C 86.6316,94.2986 68.9649,76.4652 51.5,58.5C 51.5,57.5 51.5,56.5 51.5,55.5C 53.1271,53.3702 54.9604,51.3702 57,49.5C 74.6667,68.5 93,86.8333 112,104.5C 130.333,86.1667 148.667,67.8333 167,49.5C 169.04,51.3702 170.873,53.3702 172.5,55.5 Z"/></g>
<g><path style="opacity:0.82" fill="#8b8b8b" d="M 51.5,55.5 C 51.5,56.5 51.5,57.5 51.5,58.5C 48.8333,57.5 48.8333,56.5 51.5,55.5 Z"/></g>
<g><path style="opacity:0.824" fill="#8b8b8b" d="M 172.5,55.5 C 175.167,56.5 175.167,57.5 172.5,58.5C 172.5,57.5 172.5,56.5 172.5,55.5 Z"/></g>
<g><path style="opacity:0.788" fill="#7b7b7b" d="M 53.5,163.5 C 52.8333,165.167 52.1667,166.833 51.5,168.5C 50.7109,168.217 50.0442,167.717 49.5,167C 50.7051,165.624 52.0384,164.458 53.5,163.5 Z"/></g>
</svg>
