<?xml version="1.0" standalone="no"?>
<!DOCTYPE svg PUBLIC "-//W3C//DTD SVG 20010904//EN"
 "http://www.w3.org/TR/2001/REC-SVG-20010904/DTD/svg10.dtd">
<svg version="1.0" xmlns="http://www.w3.org/2000/svg"
 width="260.000000pt" height="280.000000pt" viewBox="0 0 260.000000 280.000000"
 preserveAspectRatio="xMidYMid meet">

<g transform="translate(0.000000,280.000000) scale(0.100000,-0.100000)"
fill="#000000" stroke="none">
<path d="M546 2159 c-30 -23 -33 -45 -10 -77 16 -23 53 -29 82 -13 26 14 144
-21 153 -45 4 -10 49 -198 99 -418 l92 -399 -26 -21 c-63 -52 -71 -157 -15
-220 17 -20 29 -45 29 -61 0 -18 13 -40 39 -66 33 -33 45 -39 82 -39 56 0 104
29 126 75 l17 35 208 0 208 0 20 -40 c62 -122 244 -78 244 60 0 141 -188 182
-248 55 l-18 -38 -142 6 c-77 4 -171 7 -208 7 -65 0 -68 1 -83 30 -22 42 -71
70 -122 70 -33 0 -50 -7 -79 -32 -35 -31 -37 -31 -50 -13 -29 39 -12 113 33
142 25 16 65 18 466 23 l439 5 109 305 c60 167 109 312 109 322 0 11 -7 18
-19 18 -15 0 -36 -51 -121 -287 -57 -159 -107 -296 -112 -306 -8 -16 -36 -17
-425 -15 l-417 3 -98 425 c-55 233 -103 427 -108 430 -5 3 -43 14 -85 25 -44
11 -75 24 -75 31 0 14 -38 44 -56 44 -6 0 -23 -9 -38 -21z m592 -1171 c50 -48
14 -138 -55 -138 -46 0 -68 13 -83 50 -10 24 -10 36 0 60 25 59 90 72 138 28z
m690 -4 c48 -54 10 -134 -63 -134 -69 0 -108 73 -69 128 33 48 92 50 132 6z"/>
<path d="M1342 1945 c-155 -48 -243 -218 -194 -373 27 -84 77 -143 154 -181
154 -77 340 -10 411 148 14 32 21 68 21 116 2 207 -194 352 -392 290z m209
-63 c159 -83 186 -295 53 -412 -52 -46 -99 -63 -169 -63 -267 0 -352 358 -113
477 74 37 156 36 229 -2z"/>
<path d="M1314 1776 c-5 -13 8 -31 45 -68 l52 -51 -50 -51 c-28 -29 -51 -57
-51 -64 0 -24 27 -11 75 38 l49 50 51 -50 c50 -49 75 -62 75 -38 0 7 -23 35
-50 63 l-50 51 50 49 c44 44 65 85 42 85 -4 0 -30 -22 -57 -50 -27 -27 -54
-50 -59 -50 -6 0 -34 23 -63 52 -44 43 -53 49 -59 34z"/>
</g>
</svg>
