<svg width="190" height="65" viewBox="0 0 190 65" fill="none" xmlns="http://www.w3.org/2000/svg">
<g clip-path="url(#clip0_330_39)">
<path d="M80.9508 32.901C80.9508 41.8062 73.9843 48.3682 65.4348 48.3682C56.8853 48.3682 49.9188 41.8062 49.9188 32.901C49.9188 23.9331 56.8853 17.4338 65.4348 17.4338C73.9843 17.4338 80.9508 23.9331 80.9508 32.901ZM74.1586 32.901C74.1586 27.3362 70.121 23.5287 65.4348 23.5287C60.7486 23.5287 56.711 27.3362 56.711 32.901C56.711 38.4101 60.7486 42.2734 65.4348 42.2734C70.121 42.2734 74.1586 38.4031 74.1586 32.901Z" fill="black"/>
<path d="M114.423 32.901C114.423 41.8062 107.457 48.3682 98.9074 48.3682C90.3579 48.3682 83.3914 41.8062 83.3914 32.901C83.3914 23.9401 90.3579 17.4338 98.9074 17.4338C107.457 17.4338 114.423 23.9331 114.423 32.901ZM107.631 32.901C107.631 27.3362 103.594 23.5287 98.9074 23.5287C94.2212 23.5287 90.1836 27.3362 90.1836 32.901C90.1836 38.4101 94.2212 42.2734 98.9074 42.2734C103.594 42.2734 107.631 38.4031 107.631 32.901Z" fill="black"/>
<path d="M146.501 18.3683V46.1367C146.501 57.5592 139.765 62.2245 131.801 62.2245C124.305 62.2245 119.793 57.2106 118.091 53.1102L124.005 50.6485C125.058 53.166 127.638 56.1367 131.794 56.1367C136.892 56.1367 140.051 52.9916 140.051 47.0711V44.8466H139.814C138.294 46.7225 135.365 48.3612 131.669 48.3612C123.935 48.3612 116.85 41.6248 116.85 32.9568C116.85 24.226 123.935 17.4338 131.669 17.4338C135.358 17.4338 138.287 19.0726 139.814 20.8927H140.051V18.3753H146.501V18.3683ZM140.532 32.9568C140.532 27.5105 136.899 23.5287 132.275 23.5287C127.589 23.5287 123.663 27.5105 123.663 32.9568C123.663 38.3473 127.589 42.2734 132.275 42.2734C136.899 42.2734 140.532 38.3473 140.532 32.9568Z" fill="black"/>
<path d="M157.136 2.09229V47.4199H150.511V2.09229H157.136Z" fill="black"/>
<path d="M182.952 37.9917L188.224 41.5063C186.522 44.0237 182.422 48.3612 175.337 48.3612C166.55 48.3612 159.988 41.5691 159.988 32.8941C159.988 23.696 166.606 17.4269 174.577 17.4269C182.603 17.4269 186.529 23.8146 187.812 27.2665L188.517 29.0238L167.84 37.5872C169.423 40.6904 171.885 42.2734 175.337 42.2734C178.796 42.2734 181.195 40.5719 182.952 37.9917ZM166.725 32.4268L180.546 26.6877C179.786 24.756 177.499 23.4101 174.807 23.4101C171.355 23.4101 166.55 26.4575 166.725 32.4268Z" fill="black"/>
<path d="M24.8423 28.8773V22.3153H46.9552C47.1713 23.4589 47.2829 24.8118 47.2829 26.2762C47.2829 31.1995 45.937 37.2873 41.5995 41.6248C37.3806 46.0181 31.9901 48.3612 24.8492 48.3612C11.6136 48.3612 0.483887 37.5802 0.483887 24.3445C0.483887 11.1089 11.6136 0.327881 24.8492 0.327881C32.1714 0.327881 37.3875 3.20095 41.3066 6.94571L36.6762 11.5761C33.8659 8.94013 30.0584 6.88993 24.8423 6.88993C15.177 6.88993 7.61776 14.6793 7.61776 24.3445C7.61776 34.0098 15.177 41.7992 24.8423 41.7992C31.1114 41.7992 34.6818 39.2817 36.9691 36.9944C38.8241 35.1395 40.0444 32.4896 40.5256 28.8703L24.8423 28.8773Z" fill="black"/>
</g>
<defs>
<clipPath id="clip0_330_39">
<rect width="189.679" height="64.156" fill="white" transform="translate(0.232666)"/>
</clipPath>
</defs>
</svg>
