<svg width="173" height="65" viewBox="0 0 173 65" fill="none" xmlns="http://www.w3.org/2000/svg">
<path d="M3.1456 53.661H4.4916V57.6992H9.65149V53.661H10.9528V63.0834H9.65149V58.776H4.4916V63.0834H3.1456V53.661Z" fill="black"/>
<path d="M31.8166 59.6734C31.8166 62.0514 30.3807 63.3077 27.9129 63.3077C25.4003 63.3077 23.8748 62.186 23.8748 59.6734V53.661H25.2208V59.6734C25.2208 61.3335 26.2079 62.2757 27.9129 62.2757C29.5731 62.2757 30.5153 61.3335 30.5153 59.6734V53.661H31.8166V59.6734Z" fill="black"/>
<path d="M48.1037 63.3527C45.1424 63.5322 43.3477 61.0195 43.3477 58.5518C43.3477 55.8148 44.9181 53.4368 48.0588 53.4368C50.2126 53.4368 51.9174 54.3341 52.2765 56.5776H50.9753C50.7061 55.1418 49.4946 54.4687 48.0588 54.4687C45.6359 54.4687 44.6488 56.4878 44.6488 58.5069C44.6488 60.4811 45.9052 62.3656 48.2832 62.3207C49.4946 62.2759 50.4817 62.0515 50.9753 61.2439C51.3342 60.7503 51.2444 59.853 51.1996 59.1799H48.0588V58.1031H52.3662C52.3662 58.1031 52.3662 60.5708 52.3662 61.6477C51.2444 63.0386 49.8984 63.263 48.1037 63.3527Z" fill="black"/>
<path d="M68.4741 62.2759C70.8521 62.2759 71.8841 60.2568 71.8841 58.3723C71.8841 56.4878 70.8521 54.4687 68.4741 54.4687C66.0512 54.4687 65.064 56.4878 65.064 58.3723C65.064 60.2568 66.0512 62.2759 68.4741 62.2759ZM68.4741 53.4368C71.6148 53.4368 73.1852 55.8148 73.1852 58.3723C73.1852 60.9298 71.6148 63.3078 68.4741 63.3078C65.3332 63.3078 63.7628 60.9298 63.7628 58.3723C63.7628 55.8148 65.3332 53.4368 68.4741 53.4368Z" fill="black"/>
<path d="M99.6127 57.6992H102.215C103.696 57.6992 104.324 57.2056 104.324 56.2185C104.324 54.9173 103.382 54.693 102.215 54.693H99.6127V57.6992ZM99.6127 62.0514H102.888C104.01 62.0514 104.728 61.3784 104.728 60.3464C104.728 59.1349 103.696 58.776 102.574 58.776H99.6127V62.0514ZM98.3116 53.661H101.856C102.754 53.661 103.875 53.661 104.459 53.9751C105.132 54.3789 105.625 55.0519 105.625 55.9493C105.625 56.9813 105.087 57.744 104.189 58.103C105.401 58.3273 106.074 59.2247 106.074 60.3913C106.074 61.7822 104.997 63.0834 103.068 63.0834H98.3116V53.661Z" fill="black"/>
<path d="M122.54 62.2759C124.963 62.2759 125.95 60.2568 125.95 58.3723C125.95 56.4878 124.963 54.4687 122.54 54.4687C120.162 54.4687 119.13 56.4878 119.13 58.3723C119.13 60.2568 120.162 62.2759 122.54 62.2759ZM122.54 53.4368C125.681 53.4368 127.296 55.8148 127.296 58.3723C127.296 60.9298 125.681 63.3078 122.54 63.3078C119.4 63.3078 117.829 60.9298 117.829 58.3723C117.829 55.8148 119.4 53.4368 122.54 53.4368Z" fill="black"/>
<path d="M145.379 56.443C145.244 55.052 144.302 54.4687 142.956 54.4687C141.834 54.4687 140.757 54.8726 140.757 56.084C140.757 57.2506 142.327 57.4301 143.898 57.789C145.468 58.1031 147.039 58.6415 147.039 60.526C147.039 62.5002 144.975 63.3078 143.18 63.3078C140.981 63.3078 139.142 62.2759 139.142 59.9876H140.353C140.353 61.5579 141.744 62.2759 143.225 62.2759C144.436 62.2759 145.737 61.9169 145.737 60.526C145.737 59.2248 144.167 59.0453 142.597 58.6864C141.026 58.3723 139.411 57.9236 139.411 56.1738C139.411 54.2893 141.206 53.4368 143 53.4368C145.02 53.4368 146.545 54.3341 146.635 56.443H145.379Z" fill="black"/>
<path d="M166.646 56.443C166.467 55.052 165.525 54.4687 164.178 54.4687C163.101 54.4687 161.98 54.8726 161.98 56.084C161.98 57.2506 163.55 57.4301 165.165 57.789C166.736 58.1031 168.306 58.6415 168.306 60.526C168.306 62.5002 166.242 63.3078 164.448 63.3078C162.249 63.3078 160.365 62.2759 160.365 59.9876H161.621C161.621 61.5579 163.012 62.2759 164.492 62.2759C165.659 62.2759 167.005 61.9169 167.005 60.526C167.005 59.2248 165.39 59.0453 163.82 58.6864C162.249 58.3723 160.679 57.9236 160.679 56.1738C160.679 54.2893 162.428 53.4368 164.268 53.4368C166.242 53.4368 167.813 54.3341 167.858 56.443H166.646Z" fill="black"/>
<path d="M14.7216 3.85703V20.8173H20.8687C20.8687 20.8173 21.407 20.7724 21.7212 20.6827C25.3105 20.3686 27.5989 16.0612 27.8232 12.9204C28.1822 9.55532 26.1182 3.99163 20.9584 3.85703C19.4328 3.81216 14.7216 3.85703 14.7216 3.85703ZM14.7216 22.7915V43.1169H20.2853C20.2853 43.1169 23.4262 43.3412 26.2528 41.053C29.0347 38.8095 30.4704 35.4893 30.1565 31.6755C29.9321 28.2655 27.3297 23.4197 21.4968 22.7915C18.4009 22.7915 14.7216 22.7915 14.7216 22.7915ZM27.8232 1.88281C32.4447 2.15203 35.4508 4.61979 35.7201 4.93387C38.0981 7.13243 38.816 10.4527 38.2327 13.6383C37.47 18.9777 30.8294 21.2211 30.8294 21.2211C36.3931 21.8941 40.5658 26.0669 41.194 30.5537C41.7325 34.9509 40.1172 38.8544 36.4828 41.5914C32.8036 44.3283 27.4194 45.2257 24.5029 45.2257C24.5029 45.2257 1.97897 45.2257 0.722723 45.2257C0.722723 44.5078 0.722723 43.9694 0.722723 43.3412C3.77373 43.3861 4.13274 43.3861 4.13274 42.1747C4.08786 37.5981 4.13274 5.65176 4.13274 4.79927C4.13274 3.81215 3.6391 3.76729 0.722723 3.76729C0.677848 3.00453 0.7676 1.88281 0.7676 1.88281H27.8232Z" fill="black"/>
<path d="M64.5256 4.21595C61.5643 6.19016 59.5003 10.7219 58.5133 14.4908C56.9428 20.1891 57.2569 26.9194 58.8273 33.8291C60.4425 40.7388 64.8846 43.1617 67.5318 43.745C72.4673 44.8667 75.6978 41.9952 77.4477 39.3479C80.8577 34.1881 81.7102 23.5542 80.6334 17.4521C79.6462 11.7987 78.1207 7.8503 75.1595 5.20306C71.8392 2.28661 67.0831 2.51095 64.5256 4.21595ZM91.1326 31.0473C89.0686 37.1943 84.9407 41.0529 80.1847 43.5656C73.948 46.9307 65.0192 47.4691 58.7824 43.745C54.9238 41.4567 45.0976 35.3546 46.3987 20.9519C46.668 17.856 48.2384 10.0937 56.898 4.26083C62.8205 0.402139 71.3456 -0.71957 79.2874 2.95964C91.671 8.61306 94.2734 22.5671 91.1326 31.0473Z" fill="black"/>
<path d="M127.521 3.9019C127.566 7.13244 127.521 13.8178 127.521 13.8178L125.951 13.8627C125.008 9.68994 122.989 6.10046 119.534 4.44033C116.214 2.82506 111.189 2.01744 107.913 4.88901C105.984 6.59401 105.715 8.34388 106.388 10.3181C107.554 13.2345 110.785 14.1319 113.298 15.2536C115.362 16.0613 119.759 17.497 119.759 17.497C124.649 19.202 130.078 22.5223 131.559 28.0411C132.232 30.4191 132.232 33.1113 131.694 35.5341C130.482 40.9184 127.027 42.2195 125.053 43.5656C124.066 44.2386 114.823 47.7832 103.696 44.1489C101.407 43.3861 98.7601 42.4887 98.7601 42.4887V30.4191C98.7601 30.4191 99.9717 30.464 100.465 30.464C101.228 32.3933 101.901 34.7265 103.516 37.0597C107.285 42.5336 112.625 44.1937 118.502 42.9374C120.835 42.399 123.393 40.7837 124.066 38.3609C124.918 35.6239 124.649 31.0922 116.393 28.0411C110.426 25.3041 102.933 24.1824 99.3884 17.5419C97.9974 13.8178 98.4013 7.35677 102.978 4.21597C107.599 1.07519 112.086 0.357301 117.515 1.07519C122.899 1.83795 124.335 2.55585 127.521 3.9019Z" fill="black"/>
<path d="M166.826 3.9019C166.871 7.13244 166.826 13.8178 166.826 13.8178L165.255 13.8627C164.313 9.68994 162.294 6.10046 158.839 4.44033C155.519 2.82506 150.494 2.01744 147.218 4.88901C145.289 6.59401 145.02 8.34388 145.693 10.3181C146.859 13.2345 150.09 14.1319 152.602 15.2536C154.666 16.0613 159.063 17.497 159.063 17.497C163.954 19.202 169.383 22.5223 170.864 28.0411C171.537 30.4191 171.537 33.1113 170.998 35.5341C169.787 40.9184 166.332 42.2195 164.358 43.5656C163.371 44.2386 154.128 47.7832 143 44.1489C140.712 43.3861 138.065 42.4887 138.065 42.4887V30.4191C138.065 30.4191 139.276 30.464 139.77 30.464C140.533 32.3933 141.206 34.7265 142.821 37.0597C146.59 42.5336 151.929 44.1937 157.807 42.9374C160.14 42.399 162.698 40.7837 163.371 38.3609C164.223 35.6239 163.954 31.0922 155.698 28.0411C149.731 25.3041 142.238 24.1824 138.693 17.5419C137.302 13.8178 137.706 7.35677 142.327 4.21597C146.904 1.07519 151.391 0.357301 156.775 1.07519C162.204 1.83795 163.64 2.55585 166.826 3.9019Z" fill="black"/>
</svg>
