<svg width="237" height="64" viewBox="0 0 237 64" fill="none" xmlns="http://www.w3.org/2000/svg">
<g clip-path="url(#clip0_330_20)">
<path d="M88.3481 12.9913H75.279C74.3847 12.9913 73.6241 13.6411 73.4846 14.5239L68.1989 48.0366C68.0938 48.6978 68.6059 49.294 69.2767 49.294H75.516C76.4103 49.294 77.1709 48.6443 77.3104 47.7595L78.736 38.7206C78.8736 37.8358 79.636 37.1861 80.5285 37.1861H84.6657C93.2746 37.1861 98.2431 33.0202 99.5407 24.7648C100.125 21.1531 99.5655 18.3153 97.8743 16.3279C96.0168 14.1456 92.7223 12.9913 88.3481 12.9913ZM89.8559 25.2311C89.1412 29.9206 85.5581 29.9206 82.0935 29.9206H80.1214L81.505 21.1626C81.5871 20.6333 82.0458 20.2435 82.5808 20.2435H83.4847C85.8448 20.2435 88.071 20.2435 89.2215 21.5888C89.9075 22.3914 90.1177 23.5838 89.8559 25.2311Z" fill="black"/>
<path d="M127.414 25.0802H121.155C120.622 25.0802 120.162 25.47 120.079 25.9993L119.802 27.7498L119.365 27.1153C118.01 25.1489 114.989 24.4916 111.973 24.4916C105.057 24.4916 99.1505 29.7295 98.0001 37.0772C97.402 40.7424 98.2523 44.2472 100.331 46.6913C102.239 48.9386 104.967 49.875 108.214 49.875C113.787 49.875 116.877 46.2919 116.877 46.2919L116.598 48.0309C116.493 48.6959 117.005 49.2921 117.672 49.2921H123.309C124.205 49.2921 124.962 48.6424 125.103 47.7576L128.486 26.3376C128.593 25.6783 128.083 25.0802 127.414 25.0802ZM118.69 37.2607C118.086 40.8361 115.248 43.2363 111.629 43.2363C109.812 43.2363 108.359 42.6534 107.427 41.5489C106.502 40.452 106.15 38.8907 106.445 37.1517C107.008 33.6069 109.894 31.1284 113.458 31.1284C115.235 31.1284 116.68 31.7189 117.631 32.8329C118.585 33.9585 118.963 35.5293 118.69 37.2607Z" fill="black"/>
<path d="M160.745 25.0801H154.456C153.856 25.0801 153.292 25.3782 152.952 25.877L144.278 38.6537L140.601 26.3757C140.37 25.6075 139.661 25.0801 138.859 25.0801H132.679C131.928 25.0801 131.406 25.8139 131.645 26.5209L138.572 46.8498L132.059 56.0435C131.547 56.7677 132.063 57.7634 132.948 57.7634H139.229C139.826 57.7634 140.384 57.4729 140.722 56.9837L161.639 26.7904C162.14 26.068 161.626 25.0801 160.745 25.0801Z" fill="black"/>
<path d="M181.567 12.9913H168.496C167.603 12.9913 166.843 13.6411 166.703 14.5239L161.417 48.0366C161.312 48.6978 161.824 49.294 162.491 49.294H169.199C169.822 49.294 170.355 48.8392 170.452 48.22L171.953 38.7206C172.09 37.8358 172.853 37.1861 173.745 37.1861H177.88C186.491 37.1861 191.458 33.0202 192.757 24.7648C193.344 21.1531 192.78 18.3153 191.089 16.3279C189.233 14.1456 185.941 12.9913 181.567 12.9913ZM183.074 25.2311C182.362 29.9206 178.779 29.9206 175.312 29.9206H173.342L174.727 21.1626C174.809 20.6333 175.264 20.2435 175.801 20.2435H176.705C179.063 20.2435 181.291 20.2435 182.442 21.5888C183.128 22.3914 183.336 23.5838 183.074 25.2311Z" fill="black"/>
<path d="M220.631 25.0802H214.376C213.839 25.0802 213.382 25.47 213.302 25.9993L213.025 27.7498L212.586 27.1153C211.231 25.1489 208.211 24.4916 205.196 24.4916C198.28 24.4916 192.375 29.7295 191.225 37.0772C190.629 40.7424 191.475 44.2472 193.554 46.6913C195.465 48.9386 198.19 49.875 201.437 49.875C207.009 49.875 210.099 46.2919 210.099 46.2919L209.82 48.0309C209.715 48.6959 210.227 49.2921 210.898 49.2921H216.534C217.426 49.2921 218.187 48.6424 218.326 47.7576L221.71 26.3376C221.814 25.6783 221.301 25.0802 220.631 25.0802ZM211.907 37.2607C211.307 40.8361 208.466 43.2363 204.846 43.2363C203.033 43.2363 201.576 42.6534 200.644 41.5489C199.719 40.452 199.371 38.8907 199.662 37.1517C200.229 33.6069 203.111 31.1284 206.675 31.1284C208.452 31.1284 209.897 31.7189 210.849 32.8329C211.806 33.9585 212.184 35.5293 211.907 37.2607Z" fill="black"/>
<path d="M228.009 13.9105L222.645 48.0365C222.539 48.6977 223.052 49.2939 223.719 49.2939H229.111C230.008 49.2939 230.768 48.6442 230.906 47.7594L236.195 14.2487C236.3 13.5875 235.788 12.9894 235.121 12.9894H229.083C228.549 12.9913 228.091 13.3811 228.009 13.9105Z" fill="black"/>
<path d="M13.9252 55.8064L14.9246 49.4582L12.6983 49.4066H2.06763L9.45543 2.56304C9.47836 2.42163 9.55289 2.28977 9.66181 2.19614C9.77074 2.1025 9.91024 2.0509 10.0555 2.0509H27.9803C33.9311 2.0509 38.0378 3.28921 40.1819 5.73334C41.187 6.87992 41.8272 8.07809 42.1368 9.39666C42.4616 10.7802 42.4674 12.4332 42.1502 14.4493L42.1272 14.5964V15.8882L43.1324 16.4577C43.979 16.9068 44.6516 17.4208 45.1676 18.0094C46.0275 18.9897 46.5836 20.2357 46.8187 21.7128C47.0613 23.2321 46.9811 25.0398 46.5836 27.0865C46.125 29.4408 45.3835 31.4913 44.3822 33.1691C43.4611 34.7151 42.2878 35.9973 40.8947 36.991C39.5646 37.935 37.9843 38.6517 36.1975 39.1103C34.4662 39.5613 32.4921 39.7887 30.327 39.7887H28.932C27.9345 39.7887 26.9656 40.1479 26.2051 40.7919C25.4426 41.4493 24.9381 42.3475 24.7833 43.3297L24.6782 43.9011L22.9125 55.0898L22.8322 55.5007C22.8112 55.6306 22.7749 55.6956 22.7214 55.7395C22.6736 55.7797 22.6048 55.8064 22.5379 55.8064H13.9252Z" fill="black"/>
<path d="M44.0839 14.7455C44.0304 15.0875 43.9692 15.4373 43.9004 15.7965C41.5366 27.9331 33.4493 32.1257 23.1206 32.1257H17.8616C16.5984 32.1257 15.534 33.043 15.3372 34.2889L12.6446 51.3653L11.8822 56.2058C11.7541 57.0237 12.3847 57.7614 13.2103 57.7614H22.5377C23.6423 57.7614 24.5805 56.9587 24.7544 55.8695L24.8462 55.3956L26.6023 44.2508L26.7151 43.6393C26.8871 42.5462 27.8273 41.7436 28.9318 41.7436H30.3268C39.3638 41.7436 46.4382 38.0746 48.5058 27.4572C49.3696 23.0219 48.9224 19.3184 46.6369 16.7138C45.9452 15.9284 45.0871 15.2767 44.0839 14.7455Z" fill="#6A6A6A"/>
<path d="M41.6109 13.7596C41.2497 13.6545 40.8771 13.559 40.4949 13.473C40.1108 13.3889 39.7172 13.3143 39.312 13.2494C37.8941 13.0201 36.3405 12.9111 34.676 12.9111H20.6266C20.2807 12.9111 19.952 12.9895 19.6577 13.1309C19.0099 13.4424 18.5284 14.0558 18.4118 14.8068L15.423 33.7369L15.337 34.2891C15.5339 33.0432 16.5983 32.1259 17.8614 32.1259H23.1204C33.4492 32.1259 41.5364 27.9313 43.9003 15.7967C43.971 15.4374 44.0302 15.0877 44.0837 14.7457C43.4856 14.4284 42.8378 14.1571 42.1403 13.9259C41.9683 13.8685 41.7906 13.8131 41.6109 13.7596Z" fill="#6A6A6A"/>
<path d="M18.4121 14.8068C18.5286 14.0558 19.0102 13.4423 19.658 13.1328C19.9542 12.9914 20.281 12.913 20.6269 12.913H34.6763C36.3407 12.913 37.8944 13.0219 39.3123 13.2512C39.7174 13.3162 40.1111 13.3907 40.4952 13.4748C40.8774 13.5608 41.25 13.6564 41.6112 13.7615C41.7908 13.815 41.9685 13.8704 42.1424 13.9258C42.8399 14.157 43.4878 14.4303 44.0859 14.7456C44.7891 10.2606 44.0802 7.20686 41.6551 4.44169C38.9817 1.39752 34.1565 0.0942383 27.9822 0.0942383H10.0573C8.79607 0.0942383 7.72019 1.0115 7.52528 2.25936L0.0591274 49.5845C-0.0880171 50.5208 0.634328 51.3655 1.57835 51.3655H12.6448L15.4233 33.7368L18.4121 14.8068Z" fill="black"/>
</g>
<defs>
<clipPath id="clip0_330_20">
<rect width="236.96" height="63.0619" fill="white" transform="translate(0.0400391 0.0942383)"/>
</clipPath>
</defs>
</svg>
