<svg width="207" height="55" viewBox="0 0 207 55" fill="none" xmlns="http://www.w3.org/2000/svg">
<path d="M60.9189 1.56194C49.0572 1.64675 39.3546 14.8302 39.3546 26.3292C39.3546 38.43 46.467 53.1911 60.9189 53.1432C75.3709 53.0952 82.8719 37.2037 82.8719 26.3292C82.8719 14.3175 72.7807 1.47714 60.9189 1.56194ZM60.9189 2.01297C70.8468 2.01297 73.5251 12.9775 73.5251 26.3292C73.5251 43.9465 70.2943 52.638 60.9189 52.6214C51.5436 52.6049 48.4936 45.4913 48.4936 26.3292C48.4936 14.3257 50.9911 2.01297 60.9189 2.01297Z" fill="black"/>
<path d="M86.7886 26.6543C86.7354 13.5702 97.2072 1.98021 106.072 1.40518C109.274 1.17833 113.39 2.64464 115.793 3.68918C117.537 4.44767 121.099 3.34978 121.732 1.33557H122.077V19.1586H121.732C121.732 18.3988 118.431 1.85328 106.072 1.85328C96.9428 1.85328 96.0609 17.9054 96.0609 26.6543C96.0609 35.4031 96.3268 52.7228 106.98 52.7228C112.141 52.7228 115.961 50.4649 116.951 45.8972V32.0085H112.619V31.4169H129.41V32.0085H125.268V52.3137H124.931C124.931 52.3137 124.258 49.3839 120.842 49.3937C116.475 49.4062 112.357 53.1998 107.337 53.1536C94.0618 53.0315 86.8417 39.7383 86.7886 26.6543Z" fill="black"/>
<path d="M6.78933 3.31741H1.56125V2.72974H19.8755V3.31741H15.2809L28.3669 38.8548C32.4589 26.2567 35.6289 16.9442 39.895 3.31741H35.3503V2.72974H45.0204V3.31741H40.6167L24.7121 52.899L6.78933 3.31741Z" fill="black"/>
<path d="M131.974 40.7601L131.891 3.26033H126.915V2.69861H145.249V3.26033H140.275L140.386 44.3768C141.487 49.085 143.444 52.6574 150.132 52.7106C156.819 52.7638 161.366 48.7545 163.056 43.2752V3.26033H157.363L157.363 2.71516H203.957L204.054 20.7165H203.606C202.742 9.09372 198.257 4.70113 190.414 3.41965C187.715 2.97869 184.883 3.30558 181.304 3.27776V26.2523C184.421 26.4931 187.741 26.2961 189.979 24.3743C192.013 22.6268 192.588 18.5893 192.738 16.9491H193.132V36.9527H192.705C192.582 36.9527 192.419 31.9329 189.979 29.5513C187.522 27.1541 184.395 26.5647 181.304 27.1359V51.6776C185.67 51.6776 189.15 52.0475 192.172 51.2189C201.359 48.7003 204.593 40.9498 204.568 33.1764H205.079V52.2587H168.532V51.6776H172.664V3.26033H163.736V43.2752C162.724 47.1039 159.025 53.4379 149.547 53.3947C140.734 53.3545 131.993 49.3813 131.974 40.7601Z" fill="black"/>
</svg>
